<?xml version="1.0" encoding="UTF-8"?>
<svg width="1200pt" height="1200pt" version="1.1" viewBox="0 0 1200 1200" xmlns="http://www.w3.org/2000/svg">
 <path d="m179.93 454.78v323.02c2.832 35.418 22.668 52.422 59.504 48.172v43.918h-60.922v51.004h502.95l335.77-87.84v-22.668l-342.86 59.504h-52.422v-48.172l395.28-32.586 2.832-167.18c-1.418-21.25-9.918-39.668-34.004-53.836-157.26-63.754-273.44-83.59-381.11-262.1-12.75-21.25-42.504-26.918-73.672-26.918l-205.43-1.418c-80.754 0-96.34 65.172-145.93 177.09zm748.05 134.59v55.254c24.086 4.25 48.172 8.5 72.254 12.75v-31.168c-1.418-9.918-29.754-21.25-72.254-36.836zm-28.336 48.172v-58.086c-17-7.082-36.836-14.168-55.254-21.25v66.59c18.418 4.25 36.836 8.5 55.254 12.75zm-82.172-21.25v-69.422c-19.836-8.5-38.254-17-56.672-26.918v79.34c18.418 7.082 36.836 12.75 56.672 17zm-83.59-25.5v-85.008c-22.668-12.75-42.504-26.918-59.504-42.504l-1.418 103.43c19.836 8.5 41.086 15.586 60.922 24.086zm-291.86-263.52v127.51l187.01-1.418c-65.172-111.93-32.586-131.76-187.01-126.09zm-24.086 0v127.51l-187.01-1.418c52.422-114.76 48.172-133.18 187.01-126.09zm162.93 365.52c22.668 0 41.086 18.418 41.086 41.086 0 21.25-18.418 39.668-41.086 39.668-21.25 0-39.668-18.418-39.668-39.668 0-22.668 18.418-41.086 39.668-41.086zm-304.61 0c22.668 0 41.086 18.418 41.086 41.086 0 21.25-18.418 39.668-41.086 39.668s-39.668-18.418-39.668-39.668c0-22.668 17-41.086 39.668-41.086z" fill="#fff" fill-rule="evenodd"/>
</svg>
