<?xml version="1.0" encoding="UTF-8"?>
<svg width="1200pt" height="1200pt" version="1.1" viewBox="0 0 1200 1200" xmlns="http://www.w3.org/2000/svg">
 <path d="m600 75c-139.24 0-272.77 55.312-371.23 153.77s-153.77 231.99-153.77 371.23 55.312 272.77 153.77 371.23 231.99 153.77 371.23 153.77 272.77-55.312 371.23-153.77 153.77-231.99 153.77-371.23c-0.15625-139.19-55.52-272.64-153.94-371.06s-231.87-153.79-371.06-153.94zm207.38 432.38c-5.2734 5.2734-12.426 8.2383-19.887 8.2383-7.457 0-14.613-2.9648-19.887-8.2383l-139.5-139.5v532.12c0 10.047-5.3594 19.332-14.062 24.355-8.6992 5.0273-19.422 5.0273-28.125 0-8.6992-5.0234-14.062-14.309-14.062-24.355v-532.11l-139.5 139.5c-7.1836 6.668-17.324 9.1172-26.758 6.4609-9.4375-2.6602-16.809-10.039-19.457-19.477-2.6484-9.4414-0.1875-19.578 6.4883-26.754l187.5-187.5c3.8789-3.7344 8.7266-6.3086 13.996-7.4219 5.2695-1.1172 10.746-0.73047 15.805 1.1133 0.24609 0.09375 0.51172 0.085938 0.75 0.1875l0.097657 0.023438c3.0586 1.332 5.8555 3.1992 8.25 5.5195 0.26172 0.24219 0.60937 0.32422 0.87109 0.57812l187.5 187.5c5.2617 5.2773 8.2188 12.426 8.2148 19.879s-2.9648 14.602-8.2344 19.871z" fill="#ff001b"/>
</svg>
